<?xml version="1.0" encoding="UTF-8" standalone="no"?><!DOCTYPE svg PUBLIC "-//W3C//DTD SVG 1.1//EN" "http://www.w3.org/Graphics/SVG/1.1/DTD/svg11.dtd"><svg width="100%" height="100%" viewBox="0 0 785 402" version="1.1" xmlns="http://www.w3.org/2000/svg" xmlns:xlink="http://www.w3.org/1999/xlink" xml:space="preserve" xmlns:serif="http://www.serif.com/" style="fill-rule:evenodd;clip-rule:evenodd;stroke-linejoin:round;stroke-miterlimit:2;"><rect id="Logo" x="0" y="0" width="784.21" height="401.161" style="fill:none;"/><g id="TASmod"><path d="M3.391,334.209l-0,-21.206l113.232,0l0,21.206l-41.175,-0l-0,63.616l-30.882,-0l0,-63.616l-41.175,-0Z" style="fill:#fff;fill-rule:nonzero;"/><path d="M0.175,309.788l119.664,-0l-0,27.636l-41.176,0l0,63.617l-37.313,-0l0,-63.617l-41.175,0l-0,-27.636Zm3.216,24.421l41.175,-0l0,63.616l30.882,-0l-0,-63.616l41.175,-0l0,-21.206l-113.232,0l-0,21.206Z"/><path d="M131.858,397.825l0,-21.205l10.294,-0l0,-21.206l10.294,0l0,-21.205l10.294,-0l-0,-21.206l51.469,0l0,21.206l10.294,-0l0,21.205l10.294,0l0,21.206l10.294,-0l0,21.205l-30.882,-0l0,-10.603l-51.469,0l-0,10.603l-30.882,-0Zm51.47,-63.616l-0,21.205l-10.294,0l-0,10.603l30.882,-0l-0,-10.603l-10.294,0l-0,-21.205l-10.294,-0Z" style="fill:#fff;fill-rule:nonzero;"/><path d="M128.643,373.404l10.294,-0l-0,-21.206l10.293,0l0,-21.205l10.294,0l0,-21.205l57.901,-0l0,21.205l10.294,0l-0,21.205l10.294,0l-0,21.206l10.294,-0l-0,27.637l-37.313,-0l-0,-10.603l-45.038,-0l-0,10.603l-37.313,-0l-0,-27.637Zm3.215,24.421l30.882,-0l-0,-10.603l51.469,0l0,10.603l30.882,-0l0,-21.205l-10.294,-0l0,-21.206l-10.294,0l0,-21.205l-10.294,-0l0,-21.206l-51.469,0l-0,21.206l-10.294,-0l0,21.205l-10.294,0l0,21.206l-10.294,-0l0,21.205Zm51.47,-63.616l10.294,-0l-0,21.205l10.294,0l-0,10.603l-30.882,-0l-0,-10.603l10.294,0l-0,-21.205Zm3.215,3.215l0,21.206l-10.293,-0l-0,4.171l24.45,0l-0,-4.171l-10.294,-0l0,-21.206l-3.863,0Z"/><path d="M260.326,397.825l0,-21.205l82.351,-0l0,-10.603l-72.057,-0l0,-10.603l-10.294,0l0,-31.808l10.294,-0l0,-10.603l102.939,0l-0,21.206l-82.351,-0l-0,10.602l72.057,0l0,10.603l10.294,0l-0,31.808l-10.294,0l0,10.603l-102.939,-0Z" style="fill:#fff;fill-rule:nonzero;"/><path d="M257.11,373.404l82.352,-0l-0,-4.172l-72.058,0l0,-10.602l-10.294,-0l0,-38.24l10.294,0l0,-10.602l109.371,-0l-0,27.636l-82.352,0l0,4.172l72.058,-0l-0,10.602l10.294,0l-0,38.24l-10.294,-0l-0,10.603l-109.371,-0l0,-27.637Zm3.216,24.421l102.939,-0l0,-10.603l10.294,0l-0,-31.808l-10.294,0l0,-10.603l-72.057,0l-0,-10.602l82.351,-0l-0,-21.206l-102.939,0l0,10.603l-10.294,-0l0,31.808l10.294,0l0,10.603l72.057,-0l0,10.603l-82.351,-0l0,21.205Z"/><path d="M388.794,397.825l30.882,-0l-0,-42.411l10.293,0l0,21.206l10.294,-0l0,21.205l30.882,-0l0,-21.205l10.294,-0l-0,-21.206l10.294,0l-0,42.411l30.882,-0l-0,-84.822l-51.47,0l0,21.206l-10.294,-0l0,21.205l-10.294,0l0,-21.205l-10.294,-0l0,-21.206l-51.469,0l-0,84.822Z" style="fill:#fff;fill-rule:nonzero;"/><path d="M385.578,309.788l57.901,-0l0,21.205l10.294,0l-0,21.205l3.863,0l-0,-21.205l10.293,0l0,-21.205l57.901,-0l0,91.253l-37.313,-0l0,-42.411l-3.862,-0l-0,21.205l-10.294,0l-0,21.206l-37.313,-0l-0,-21.206l-10.294,0l-0,-21.205l-3.863,-0l0,42.411l-37.313,-0l0,-91.253Zm3.216,88.037l30.882,-0l-0,-42.411l10.293,0l0,21.206l10.294,-0l0,21.205l30.882,-0l0,-21.205l10.294,-0l-0,-21.206l10.294,0l-0,42.411l30.882,-0l-0,-84.822l-51.47,0l0,21.206l-10.294,-0l0,21.205l-10.294,0l0,-21.205l-10.294,-0l0,-21.206l-51.469,0l-0,84.822Z"/><path d="M548.143,397.825l0,-10.603l-10.294,0l0,-63.616l10.294,-0l0,-10.603l92.645,0l0,10.603l10.294,-0l0,63.616l-10.294,0l0,10.603l-92.645,-0Zm72.058,-63.616l-51.47,-0l0,42.411l51.47,-0l-0,-42.411Z" style="fill:#fff;fill-rule:nonzero;"/><path d="M544.928,397.825l-0,-7.387l-10.294,-0l-0,-70.048l10.294,0l-0,-10.602l99.076,-0l0,10.602l10.294,0l-0,70.048l-10.294,-0l0,10.603l-99.076,-0l-0,-3.216Zm3.215,-0l92.645,-0l0,-10.603l10.294,0l0,-63.616l-10.294,-0l0,-10.603l-92.645,0l0,10.603l-10.294,-0l0,63.616l10.294,0l0,10.603Zm72.058,-63.616l-0,42.411l-51.47,-0l0,-42.411l51.47,-0Zm-3.216,3.215l-45.038,0l-0,35.98l45.038,-0l0,-35.98Z"/><path d="M666.317,397.825l0,-84.822l102.939,0l0,10.603l10.294,-0l0,63.616l-10.294,0l0,10.603l-102.939,-0Zm82.351,-63.616l-51.469,-0l-0,42.411l51.469,-0l0,-42.411Z" style="fill:#fff;fill-rule:nonzero;"/><path d="M663.102,309.788l109.37,-0l-0,10.602l10.294,0l-0,70.048l-10.294,-0l-0,10.603l-109.37,-0l-0,-91.253Zm3.215,88.037l102.939,-0l0,-10.603l10.294,0l0,-63.616l-10.294,-0l0,-10.603l-102.939,0l0,84.822Zm82.351,-63.616l0,42.411l-51.469,-0l-0,-42.411l51.469,-0Zm-3.215,3.215l-45.038,0l-0,35.98l45.038,-0l-0,-35.98Z"/></g><g id="Potion"><path d="M337.973,266.575l-22.388,-6.147l5.481,-19.937l-38.573,-10.602l29.097,-105.879l19.286,5.301l5.475,-19.936l19.287,5.301l5.479,-19.934l25.489,7.004l-5.478,19.935l51.656,14.198l5.475,-19.936l25.491,7.006l-5.481,19.93l19.286,5.301l-5.476,19.936l19.288,5.301l-11.814,42.968l-5.475,19.936l-5.482,19.937l-6.326,23.037l-38.575,-10.601l-5.48,19.937l-80.242,-22.056Z" style="fill-rule:nonzero;"/><path d="M417.268,116.845l6.334,-23.038l4.622,-16.834l-13.078,-3.591l-10.962,39.867l-25.482,-7.005l6.326,-23.038l4.628,-16.829l-19.285,-5.301l6.326,-23.038l6.334,-23.037l19.286,5.3l5.474,-19.936l64.064,17.608l-5.475,19.936l19.281,5.3l-6.327,23.032l-6.334,23.038l-19.286,-5.301l-4.623,16.835l-6.333,23.038l-25.49,-7.006Z" style="fill-rule:nonzero;"/><path d="M426.928,244.804l-19.286,-5.301l5.474,-19.93l5.481,-19.937l19.287,5.301l-5.481,19.937l-5.475,19.93Z" style="fill:#fff;fill-rule:nonzero;"/><path d="M487.413,175.666l-5.481,19.937l-5.481,19.93l-5.475,19.936l-5.481,19.936l-5.475,19.937l-38.573,-10.602l5.481,-19.936l19.28,5.301l5.482,-19.937l5.481,-19.93l5.474,-19.936l5.481,-19.937l19.287,5.301Z" style="fill:#fff;fill-rule:nonzero;"/><path d="M402.161,259.439l19.286,5.301l-5.481,19.936l-19.287,-5.301l-19.28,-5.3l-38.573,-10.602l-19.287,-5.295l5.481,-19.936l19.281,5.301l19.286,5.294l19.287,5.301l5.481,-19.93l19.287,5.295l-5.481,19.936Z" style="fill:#fff;fill-rule:nonzero;"/><path d="M421.447,264.741l5.478,-19.936l-19.286,-5.3l-5.478,19.935l19.286,5.301Z" style="fill:#546980;"/><path d="M371.693,143.867l-5.475,19.937l-5.481,19.93l-19.286,-5.301l5.481,-19.93l5.474,-19.937l19.287,5.301Z" style="fill:#fff;fill-rule:nonzero;"/><path d="M468.126,170.365l-5.481,19.937l-5.474,19.936l-5.481,19.93l-5.482,19.937l-19.28,-5.301l5.475,-19.93l5.481,-19.937l-19.287,-5.301l-5.481,19.937l-5.474,19.93l-19.287,-5.295l-5.481,19.93l-19.287,-5.301l-19.286,-5.294l-19.281,-5.301l5.475,-19.937l-19.287,-5.301l5.481,-19.936l5.475,-19.93l10.962,-39.873l19.28,5.301l-5.474,19.937l-5.481,19.93l19.286,5.301l5.475,-19.93l0.006,-0l5.475,-19.937l19.287,5.301l5.481,-19.936l38.573,10.602l19.28,5.294l-5.474,19.936l19.286,5.301Z" style="fill:#546980;fill-rule:nonzero;"/><path d="M311.208,213.004l19.287,5.301l-5.475,19.937l-38.573,-10.602l27.393,-99.676l19.286,5.301l-21.918,79.739Z" style="fill:#fff;fill-rule:nonzero;"/><path d="M448.84,165.064l19.287,5.297l5.474,-19.932l-19.288,-5.297l-5.473,19.932Z" style="fill:#fff;"/><path d="M371.693,143.867l19.286,5.302l5.482,-19.937l-19.287,-5.303l-5.481,19.938Z" style="fill:#fff;"/><path d="M371.695,143.866l5.479,-19.935l-19.286,-5.301l-5.479,19.935l19.286,5.301Z" style="fill:#546980;"/><path d="M333.126,133.265l19.28,5.301l5.481,-19.936l-19.28,-5.301l-5.481,19.936Z" style="fill:#fff;"/><path d="M435.034,139.834l19.278,5.301l5.483,-19.937l-19.278,-5.302l-5.483,19.938Z" style="fill:#fff;"/><path d="M377.174,123.931l5.478,-19.935l-19.286,-5.301l-5.478,19.935l19.286,5.301Z" style="fill:#fff;"/><path d="M451.464,80.024l-5.474,19.937l-5.481,19.936l-19.287,-5.301l5.481,-19.936l5.475,-19.937l19.286,5.301Z" style="fill:#fff;fill-rule:nonzero;"/><path d="M412.897,69.429l-5.481,19.93l-5.481,19.936l-19.28,-5.301l5.475,-19.936l5.481,-19.93l19.286,5.301Z" style="fill:#fff;fill-rule:nonzero;"/><path d="M456.945,60.088l-5.481,19.936l-19.286,-5.301l-19.281,-5.294l-19.286,-5.301l5.474,-19.936l38.574,10.601l19.286,5.295Z" style="fill:#c24218;fill-rule:nonzero;"/><path d="M481.707,45.459l-5.475,19.93l-5.481,19.936l-19.287,-5.301l5.481,-19.936l5.481,-19.93l19.281,5.301Z" style="fill:#fff;fill-rule:nonzero;"/><path d="M462.426,40.158l-5.481,19.93l-19.286,-5.295l-38.574,-10.601l5.482,-19.937l57.859,15.903Z" style="fill:#ccafa5;fill-rule:nonzero;"/><path d="M404.567,24.255l-5.482,19.937l-5.474,19.936l-19.287,-5.301l5.475,-19.936l5.481,-19.937l19.287,5.301Z" style="fill:#fff;fill-rule:nonzero;"/><path d="M467.901,20.222l-5.475,19.936l-57.859,-15.903l5.474,-19.936l57.86,15.903Z" style="fill:#c24218;fill-rule:nonzero;"/></g></svg>